<?xml version="1.0" standalone="no"?>
<!DOCTYPE svg PUBLIC "-//W3C//DTD SVG 20010904//EN"
 "http://www.w3.org/TR/2001/REC-SVG-20010904/DTD/svg10.dtd">
<svg version="1.0" xmlns="http://www.w3.org/2000/svg"
 width="700.000000pt" height="700.000000pt" viewBox="0 0 700.000000 700.000000"
 preserveAspectRatio="xMidYMid meet">
<metadata>
Created by potrace 1.14, written by Peter Selinger 2001-2017
</metadata>
<g transform="translate(0.000000,700.000000) scale(0.100000,-0.100000)"
fill="#000000" stroke="none">
<path d="M1348 6211 l-87 -150 167 -97 c92 -53 187 -108 211 -121 24 -14 157
-91 295 -171 138 -79 267 -154 286 -165 19 -11 91 -52 160 -92 308 -179 569
-330 610 -353 25 -14 87 -50 139 -80 l95 -55 -50 -14 c-177 -49 -316 -112
-444 -201 -311 -214 -512 -522 -602 -919 l-23 -98 -3 -1663 c-2 -1346 0 -1662
10 -1663 21 -1 249 -1 296 0 l42 1 0 1081 0 1081 99 -94 c208 -200 464 -330
736 -374 65 -11 367 -11 425 0 204 36 359 96 558 214 57 34 105 62 107 62 2 0
39 21 82 46 43 26 134 79 203 119 342 198 779 450 810 468 33 18 341 197 605
350 66 38 179 103 250 144 72 41 137 79 145 84 63 39 363 209 370 209 4 0 13
6 19 14 15 17 9 29 -79 180 -39 66 -70 123 -70 128 0 14 -8 10 -128 -61 -64
-37 -241 -139 -392 -226 -151 -87 -308 -177 -347 -201 -40 -24 -75 -44 -78
-44 -3 0 -18 -8 -33 -19 -15 -10 -193 -114 -397 -231 -203 -117 -403 -232
-443 -256 -79 -48 -79 -49 -52 36 39 125 55 250 55 425 0 210 -26 355 -97 538
-45 117 -144 294 -204 366 -44 52 -55 65 -99 112 -67 72 -166 154 -260 215
-45 29 -88 60 -95 69 -7 8 -16 15 -20 15 -5 0 -107 57 -227 126 -207 121 -310
180 -385 222 -34 20 -513 297 -898 520 -118 68 -240 138 -270 155 -30 17 -111
64 -179 104 -67 40 -125 73 -127 73 -3 0 -30 16 -60 35 -30 19 -56 35 -58 35
-2 0 -53 29 -114 64 -61 36 -131 76 -154 89 -24 14 -79 45 -123 71 -44 25 -82
46 -85 46 -3 0 -45 -67 -92 -149z m2242 -1615 c339 -21 673 -252 838 -581 43
-87 90 -227 106 -320 20 -116 13 -346 -13 -452 -25 -98 -76 -237 -102 -275
-11 -14 -19 -29 -19 -33 0 -4 -18 -34 -40 -66 -116 -171 -262 -295 -443 -378
-509 -236 -1106 -6 -1357 521 -168 353 -140 783 73 1109 175 270 467 450 769
475 46 3 85 8 86 10 2 1 9 1 15 -1 7 -2 46 -6 87 -9z"/>
</g>
</svg>
